<?xml version="1.0" encoding="utf-8"?><svg xmlns="http://www.w3.org/2000/svg" xmlns:xlink="http://www.w3.org/1999/xlink"><symbol viewBox="0 0 17.469 17.531" id="Clock" xmlns="http://www.w3.org/2000/svg"><path data-name="" d="M8.732 0a8.438 8.438 0 0 1 4.366 1.185 8.839 8.839 0 0 1 3.186 3.2 8.738 8.738 0 0 1 0 8.77 8.838 8.838 0 0 1-3.186 3.2 8.637 8.637 0 0 1-8.732 0 8.849 8.849 0 0 1-3.187-3.2 8.745 8.745 0 0 1 0-8.77 8.849 8.849 0 0 1 3.187-3.2A8.436 8.436 0 0 1 8.732 0zm7.605 8.77a7.476 7.476 0 0 0-1.021-3.837 7.588 7.588 0 0 0-2.782-2.776 7.456 7.456 0 0 0-3.82-1.026 7.363 7.363 0 0 0-3.8 1.026 7.683 7.683 0 0 0-3.785 6.631 7.444 7.444 0 0 0 1.021 3.819 7.585 7.585 0 0 0 2.781 2.776 7.458 7.458 0 0 0 3.82 1.026 7.364 7.364 0 0 0 3.8-1.026 7.589 7.589 0 0 0 2.764-2.794 7.506 7.506 0 0 0 1.022-3.819zm-5.246 3.112a.436.436 0 0 0 .317.088.384.384 0 0 0 .281-.159l.282-.424a.414.414 0 0 0 .088-.3.375.375 0 0 0-.158-.265l-2.5-1.839V3.819a.421.421 0 0 0-.423-.424h-.493a.406.406 0 0 0-.3.124.411.411 0 0 0-.123.3v5.658a.348.348 0 0 0 .176.318z" fill-rule="evenodd"/></symbol><symbol viewBox="0 0 13.469 17.969" id="geolocation" xmlns="http://www.w3.org/2000/svg"><path data-name="" d="M6.737 3.371a3.355 3.355 0 1 1-2.386.983 3.247 3.247 0 0 1 2.386-.983zm0 5.618a2.278 2.278 0 1 0-1.579-.667 2.157 2.157 0 0 0 1.579.667zm0-8.989a6.5 6.5 0 0 1 3.369.913 6.868 6.868 0 0 1 2.456 2.458 6.512 6.512 0 0 1 .912 3.371 6.4 6.4 0 0 1-.28 1.984 9.935 9.935 0 0 1-1.088 2.124q-.562.878-2.316 3.406l-2.351 3.371a.877.877 0 0 1-1.4 0l-2.351-3.371q-1.754-2.528-2.316-3.406A9.877 9.877 0 0 1 .285 8.726 6.4 6.4 0 0 1 0 6.742a6.512 6.512 0 0 1 .912-3.371A6.871 6.871 0 0 1 3.369.913 6.5 6.5 0 0 1 6.737 0zm0 16.643l2.176-3.125q1.683-2.423 2.21-3.2a10.258 10.258 0 0 0 .983-1.914 5.183 5.183 0 0 0 .245-1.668 5.614 5.614 0 1 0-11.228 0 5.183 5.183 0 0 0 .245 1.668 10.321 10.321 0 0 0 .983 1.914q.527.773 2.211 3.2 1.338 1.896 2.175 3.125z" fill-rule="evenodd"/></symbol><symbol viewBox="0 0 19 19.031" id="phone" xmlns="http://www.w3.org/2000/svg"><path data-name="" d="M.89.894a1.029 1.029 0 0 0-.63.409 1.153 1.153 0 0 0-.26.706 16.969 16.969 0 0 0 17 17.027 1.155 1.155 0 0 0 .71-.26 1.068 1.068 0 0 0 .41-.632l.85-3.755a1.106 1.106 0 0 0-.07-.781 1.24 1.24 0 0 0-.6-.557l-4.01-1.71a1.167 1.167 0 0 0-.74-.056 1.19 1.19 0 0 0-.63.39l-1.63 2.008a13.179 13.179 0 0 1-5.94-5.949l2-1.636a1.195 1.195 0 0 0 .33-1.376L5.98.707a1.21 1.21 0 0 0-.56-.595 1.064 1.064 0 0 0-.78-.074zm16.07 16.953a15.424 15.424 0 0 1-7.94-2.157 15.6 15.6 0 0 1-5.68-5.688 15.405 15.405 0 0 1-2.15-7.956l3.71-.855 1.71 4.015L3.9 7.399a14.077 14.077 0 0 0 7.72 7.733l2.19-2.714 4.01 1.71z" fill-rule="evenodd"/></symbol></svg>