<?xml version="1.0" encoding="utf-8"?><svg xmlns="http://www.w3.org/2000/svg" xmlns:xlink="http://www.w3.org/1999/xlink"><symbol viewBox="0 0 17.469 17.531" id="Clock" xmlns="http://www.w3.org/2000/svg"><path data-name="" d="M8.732 0a8.438 8.438 0 0 1 4.366 1.185 8.839 8.839 0 0 1 3.186 3.2 8.738 8.738 0 0 1 0 8.77 8.838 8.838 0 0 1-3.186 3.2 8.637 8.637 0 0 1-8.732 0 8.849 8.849 0 0 1-3.187-3.2 8.745 8.745 0 0 1 0-8.77 8.849 8.849 0 0 1 3.187-3.2A8.436 8.436 0 0 1 8.732 0zm7.605 8.77a7.476 7.476 0 0 0-1.021-3.837 7.588 7.588 0 0 0-2.782-2.776 7.456 7.456 0 0 0-3.82-1.026 7.363 7.363 0 0 0-3.8 1.026 7.683 7.683 0 0 0-3.785 6.631 7.444 7.444 0 0 0 1.021 3.819 7.585 7.585 0 0 0 2.781 2.776 7.458 7.458 0 0 0 3.82 1.026 7.364 7.364 0 0 0 3.8-1.026 7.589 7.589 0 0 0 2.764-2.794 7.506 7.506 0 0 0 1.022-3.819zm-5.246 3.112a.436.436 0 0 0 .317.088.384.384 0 0 0 .281-.159l.282-.424a.414.414 0 0 0 .088-.3.375.375 0 0 0-.158-.265l-2.5-1.839V3.819a.421.421 0 0 0-.423-.424h-.493a.406.406 0 0 0-.3.124.411.411 0 0 0-.123.3v5.658a.348.348 0 0 0 .176.318z" fill-rule="evenodd"/></symbol><symbol viewBox="0 0 10.03 21.125" id="Facebook" xmlns="http://www.w3.org/2000/svg"><path data-name="" d="M2.94 21.133h3.57v-9.445h2.77l.45-3.753H6.51v-2.6a2.273 2.273 0 0 1 .3-1.319 1.67 1.67 0 0 1 1.4-.5h1.83V.175A17.262 17.262 0 0 0 7.38.009a4.219 4.219 0 0 0-3.23 1.3 5.137 5.137 0 0 0-1.21 3.65v2.97H.01v3.753h2.93v9.445z" fill-rule="evenodd"/></symbol><symbol viewBox="0 0 20.06 20.157" id="Instagram" xmlns="http://www.w3.org/2000/svg"><path data-name="" d="M10.03 4.91a4.986 4.986 0 0 1 2.57.7 5.158 5.158 0 0 1 1.88 1.888 5.185 5.185 0 0 1 0 5.169 5.158 5.158 0 0 1-1.88 1.888 5.105 5.105 0 0 1-5.15 0 5.235 5.235 0 0 1-1.88-1.888 5.185 5.185 0 0 1 0-5.169A5.235 5.235 0 0 1 7.45 5.61a5 5 0 0 1 2.58-.7zm0 8.541a3.372 3.372 0 1 0-2.38-5.754 3.386 3.386 0 0 0 0 4.765 3.243 3.243 0 0 0 2.38.989zm6.58-8.766a1.2 1.2 0 1 0-1.21 1.213 1.1 1.1 0 0 0 .83-.359 1.422 1.422 0 0 0 .38-.854zm3.4 1.213c.03.84.04 2.234.04 4.181s-.02 3.349-.06 4.2a8.684 8.684 0 0 1-.38 2.225 5.246 5.246 0 0 1-3.18 3.192 8.507 8.507 0 0 1-2.22.382c-.85.044-2.24.067-4.18.067s-3.34-.023-4.19-.067a7.2 7.2 0 0 1-2.21-.427 4.737 4.737 0 0 1-1.95-1.192 5.289 5.289 0 0 1-1.23-1.955 8.271 8.271 0 0 1-.38-2.225c-.05-.855-.07-2.256-.07-4.2s.02-3.348.07-4.2a8.257 8.257 0 0 1 .38-2.225 5.285 5.285 0 0 1 1.23-1.956A5.161 5.161 0 0 1 3.63.462 8.272 8.272 0 0 1 5.84.08C6.69.035 8.09.012 10.03.012s3.33.023 4.18.068a8.424 8.424 0 0 1 2.22.382 5.239 5.239 0 0 1 3.18 3.192 9.135 9.135 0 0 1 .4 2.244zm-2.15 10.115a9.454 9.454 0 0 0 .36-2.427c.03-.66.04-1.588.04-2.787V9.36c0-1.228-.01-2.157-.04-2.787a9.026 9.026 0 0 0-.36-2.428 3.25 3.25 0 0 0-1.92-1.932 9.052 9.052 0 0 0-2.42-.36c-.66-.03-1.58-.045-2.78-.045H9.31c-1.19 0-2.12.015-2.77.045a9.349 9.349 0 0 0-2.42.36 3.24 3.24 0 0 0-1.93 1.932 9.026 9.026 0 0 0-.36 2.428 67.2 67.2 0 0 0-.04 2.787v1.439c0 1.2.01 2.127.04 2.787a9.454 9.454 0 0 0 .36 2.427 3.4 3.4 0 0 0 1.93 1.934 9.315 9.315 0 0 0 2.42.359c.65.03 1.58.045 2.77.045h1.43c1.23 0 2.15-.015 2.78-.045a9.02 9.02 0 0 0 2.42-.359 3.413 3.413 0 0 0 1.92-1.934z" fill-rule="evenodd" opacity=".8"/></symbol><symbol viewBox="0 0 13.97 16" id="Man" xmlns="http://www.w3.org/2000/svg"><path d="M9.79 9.01a4.117 4.117 0 0 1 2.09.56 4.159 4.159 0 0 1 1.53 1.53 4.081 4.081 0 0 1 .56 2.1v1.31a1.433 1.433 0 0 1-.43 1.06 1.48 1.48 0 0 1-1.07.44H1.49a1.442 1.442 0 0 1-1.06-.44 1.4 1.4 0 0 1-.44-1.06V13.2a4.18 4.18 0 0 1 .56-2.1 4.313 4.313 0 0 1 1.53-1.53 4.144 4.144 0 0 1 2.09-.56 3.381 3.381 0 0 1 1.06.22c.29.08.53.14.72.19a5.486 5.486 0 0 0 1.03.09 5.411 5.411 0 0 0 1.03-.09c.19-.05.43-.11.72-.19a3.435 3.435 0 0 1 1.06-.22zm3.18 5.5V13.2a3.192 3.192 0 0 0-3.18-3.19 2.863 2.863 0 0 0-.78.16 6.23 6.23 0 0 1-4.06 0 2.863 2.863 0 0 0-.78-.16A3.192 3.192 0 0 0 .99 13.2v1.31a.454.454 0 0 0 .14.36.49.49 0 0 0 .36.14h10.98a.49.49 0 0 0 .36-.14.454.454 0 0 0 .14-.36zm-5.99-6.5a3.972 3.972 0 0 1-2.01-.53 3.881 3.881 0 0 1-1.45-1.45 3.935 3.935 0 0 1-.53-2.02A3.991 3.991 0 0 1 4.97.54a3.994 3.994 0 0 1 6.01 3.47 4.036 4.036 0 0 1-.53 2.02 3.991 3.991 0 0 1-3.47 1.98zm0-7a2.861 2.861 0 0 0-2.12.88 2.9 2.9 0 0 0-.88 2.12 2.938 2.938 0 0 0 .88 2.13 3 3 0 0 0 5.12-2.13 3 3 0 0 0-3-3z" fill-rule="evenodd"/></symbol><symbol viewBox="0 0 8.87 14.22" id="Mobile" xmlns="http://www.w3.org/2000/svg"><path d="M5.32 11.55a.832.832 0 0 0-.26-.62.817.817 0 0 0-.62-.26.853.853 0 0 0-.63.26.881.881 0 0 0 0 1.25.853.853 0 0 0 .63.26.817.817 0 0 0 .62-.26.838.838 0 0 0 .26-.63zM8.88 1.33a1.276 1.276 0 0 0-.39-.94A1.3 1.3 0 0 0 7.54 0H1.33a1.26 1.26 0 0 0-.94.39 1.276 1.276 0 0 0-.39.94v11.56a1.276 1.276 0 0 0 .39.94 1.26 1.26 0 0 0 .94.39h6.21a1.3 1.3 0 0 0 .95-.39 1.276 1.276 0 0 0 .39-.94V1.33zm-.89 0v11.56a.422.422 0 0 1-.13.32.438.438 0 0 1-.32.12H1.33a.438.438 0 0 1-.32-.12.454.454 0 0 1-.12-.32V1.33a.454.454 0 0 1 .12-.32.438.438 0 0 1 .32-.12h6.21a.438.438 0 0 1 .32.12.422.422 0 0 1 .13.32z" fill-rule="evenodd"/></symbol><symbol viewBox="0 0 14 16" id="Phone-form" xmlns="http://www.w3.org/2000/svg"><path d="M5.9 10.79l1.03 2.53a1.08 1.08 0 0 1 .01.71.862.862 0 0 1-.45.54l-2.03 1.28a.9.9 0 0 1-.65.14 1.214 1.214 0 0 1-.63-.29 10.794 10.794 0 0 1-2.84-4.94 10.683 10.683 0 0 1 0-5.5A10.845 10.845 0 0 1 3.18.32a1.214 1.214 0 0 1 .63-.29.947.947 0 0 1 .65.14l2.03 1.28a.88.88 0 0 1 .45.55 1.05 1.05 0 0 1-.01.7L5.9 5.23a1.134 1.134 0 0 1-.42.5 1.041 1.041 0 0 1-.64.16l-1.35-.16a7.87 7.87 0 0 0 0 4.56l1.35-.15a.971.971 0 0 1 .64.15 1.134 1.134 0 0 1 .42.5zm.06 2.94a.027.027 0 0 0 .03-.03l-1.03-2.53a.027.027 0 0 0-.03-.03l-2.12.21a9.721 9.721 0 0 1-.66-3.32 10.068 10.068 0 0 1 .66-3.36l2.12.22c.02 0 .03-.01.03-.04l1.03-2.53a.027.027 0 0 0-.03-.03L3.93 1.01H3.9a9.822 9.822 0 0 0-2.59 4.5 9.635 9.635 0 0 0 0 5 9.822 9.822 0 0 0 2.59 4.5h.03zM9.11 2.92a.394.394 0 0 1 .6.06 2.155 2.155 0 0 1 .28 1.03 2.125 2.125 0 0 1-.28 1.03.345.345 0 0 1-.29.17.365.365 0 0 1-.31-.11l-.18-.18a.237.237 0 0 1-.11-.19.442.442 0 0 1 .04-.25.93.93 0 0 0 0-.94.429.429 0 0 1-.04-.25.252.252 0 0 1 .11-.19zM12.02.11a.427.427 0 0 1 .29-.1.3.3 0 0 1 .27.13 5.965 5.965 0 0 1 1.25 2.5 6.377 6.377 0 0 1 0 2.75 6.023 6.023 0 0 1-1.25 2.5.316.316 0 0 1-.27.12.476.476 0 0 1-.29-.09l-.16-.19a.313.313 0 0 1-.13-.25.355.355 0 0 1 .1-.25 5.083 5.083 0 0 0 0-6.44.338.338 0 0 1-.1-.25.328.328 0 0 1 .13-.25zm-1.44 1.4a.365.365 0 0 1 .3-.11.356.356 0 0 1 .26.14 4.051 4.051 0 0 1 0 4.94.356.356 0 0 1-.26.14.365.365 0 0 1-.3-.11l-.19-.19a.384.384 0 0 1-.11-.23.307.307 0 0 1 .08-.24 3 3 0 0 0 0-3.68.3.3 0 0 1-.08-.24.384.384 0 0 1 .11-.23z" fill-rule="evenodd"/></symbol><symbol viewBox="0 0 12.44 10.44" id="Telegram" xmlns="http://www.w3.org/2000/svg"><path d="M12.41.97a.843.843 0 0 0-.14-.82.606.606 0 0 0-.66-.1L.59 4.3a.786.786 0 0 0-.58.5.454.454 0 0 0 .44.42l2.83.89 6.55-4.14a.6.6 0 0 1 .27-.1.144.144 0 0 1 .16.06c.03.04.01.09-.07.15l-5.3 4.81-.22 2.91a.738.738 0 0 0 .36-.08 1.191 1.191 0 0 0 .22-.2l1.39-1.33L9.5 10.3a.7.7 0 0 0 .65.1.812.812 0 0 0 .38-.6z" fill-rule="evenodd"/></symbol><symbol viewBox="0 0 13.47 14.22" id="Viber" xmlns="http://www.w3.org/2000/svg"><path d="M11.92 1.39a4.594 4.594 0 0 1 1.31 2.47 13.505 13.505 0 0 1 .08 4.36 4.543 4.543 0 0 1-1.53 3.08 4.7 4.7 0 0 1-1.8.84l-.17.03a8.134 8.134 0 0 1-1.33.25 13.877 13.877 0 0 1-2.88.08c-.39.42-.67.73-.84.92l-.22.25a4.345 4.345 0 0 1-.44.44.592.592 0 0 1-.53.08.324.324 0 0 1-.23-.21 1.124 1.124 0 0 1-.1-.31v-1.62a4 4 0 0 1-2.36-1.61 5.715 5.715 0 0 1-.81-2.39 11.3 11.3 0 0 1-.08-2.22 9.776 9.776 0 0 1 .33-2.5 4.353 4.353 0 0 1 1.06-1.86A4.722 4.722 0 0 1 3.04.53 9.13 9.13 0 0 1 4.87.11 10.42 10.42 0 0 1 6.35 0h.61a10.724 10.724 0 0 1 3.55.58 4.6 4.6 0 0 1 1.41.81zm.39 6.58a11.117 11.117 0 0 0-.05-3.72 3.746 3.746 0 0 0-1.09-2.14 3.421 3.421 0 0 0-1.22-.64A10.177 10.177 0 0 0 6.9 1h-.53a10.358 10.358 0 0 0-1.25.08 9.129 9.129 0 0 0-1.55.34 3.972 3.972 0 0 0-1.39.8 3.627 3.627 0 0 0-.91 1.56 8.111 8.111 0 0 0-.28 2.08v.17a12.48 12.48 0 0 0 .06 1.86 4.829 4.829 0 0 0 .66 1.94 3.421 3.421 0 0 0 1.92 1.31l-.03 2.39a.215.215 0 0 0 .1.23.213.213 0 0 0 .23-.09c.19-.19.56-.61 1.11-1.25l.78-.95a12.058 12.058 0 0 0 2.47-.08 10.17 10.17 0 0 0 1.16-.22l.17-.03a3.341 3.341 0 0 0 2.69-3.17zM8.45 5.72a1.182 1.182 0 0 0-1.24-1.28.159.159 0 0 0-.18.18.14.14 0 0 0 .15.18.893.893 0 0 1 .91.95.156.156 0 0 0 .18.17.17.17 0 0 0 .18-.2zm.56.31a.162.162 0 0 0 .18.19.152.152 0 0 0 .18-.17 2.449 2.449 0 0 0-.62-1.77 2.626 2.626 0 0 0-1.82-.81.168.168 0 0 0-.18.18.14.14 0 0 0 .15.18 2.31 2.31 0 0 1 1.58.7 2.022 2.022 0 0 1 .53 1.5zm1.3.39a3.8 3.8 0 0 0-1.08-2.84 3.542 3.542 0 0 0-2.61-1.03.169.169 0 0 0-.19.19.162.162 0 0 0 .19.18 3.2 3.2 0 0 1 2.33.88 3.474 3.474 0 0 1 1 2.62.181.181 0 0 0 .36 0zm-.3 2.72a.519.519 0 0 0-.11-.67 6.359 6.359 0 0 0-1.28-.89.492.492 0 0 0-.4-.09.451.451 0 0 0-.32.18L7.62 8a.387.387 0 0 1-.25.14l-.14.03a2.986 2.986 0 0 1-1.13-.59 2.881 2.881 0 0 1-.73-.78 4.524 4.524 0 0 1-.36-.69L4.9 5.8v-.13a.363.363 0 0 1 .14-.25l.33-.25a.472.472 0 0 0 .18-.32.653.653 0 0 0-.06-.43 8.12 8.12 0 0 0-.42-.67l-.5-.61a.508.508 0 0 0-.67-.11 2.93 2.93 0 0 0-.75.61.985.985 0 0 0-.19.83l.17.36a8.07 8.07 0 0 0 .58 1.21 11.946 11.946 0 0 0 .83 1.26 6.479 6.479 0 0 0 1.17 1.17 10.984 10.984 0 0 0 1.55 1 7.048 7.048 0 0 0 1.31.58.852.852 0 0 0 .83-.19 2.627 2.627 0 0 0 .61-.72z" fill-rule="evenodd"/></symbol><symbol class="isvg-inline--fa ifa-check ifa-w-16" viewBox="0 0 512 512" id="check" xmlns="http://www.w3.org/2000/svg"><path d="M173.898 439.404l-166.4-166.4c-9.997-9.997-9.997-26.206 0-36.204l36.203-36.204c9.997-9.998 26.207-9.998 36.204 0L192 312.69 432.095 72.596c9.997-9.997 26.207-9.997 36.204 0l36.203 36.204c9.997 9.997 9.997 26.206 0 36.204l-294.4 294.401c-9.998 9.997-26.207 9.997-36.204-.001z"/></symbol><symbol viewBox="0 0 10.31 7.87" id="check-mark-form" xmlns="http://www.w3.org/2000/svg"><path d="M9.59.09a.21.21 0 0 1 .18-.1.242.242 0 0 1 .19.1l.28.26a.314.314 0 0 1 .07.21.227.227 0 0 1-.07.18l-7 7.03a.242.242 0 0 1-.19.1.26.26 0 0 1-.2-.1L.07 4.99A.294.294 0 0 1 0 4.8a.377.377 0 0 1 .07-.21l.28-.26a.246.246 0 0 1 .38 0l2.3 2.32z" fill-rule="evenodd"/></symbol><symbol viewBox="0 0 13.469 17.969" id="geolocation" xmlns="http://www.w3.org/2000/svg"><path data-name="" d="M6.737 3.371a3.355 3.355 0 1 1-2.386.983 3.247 3.247 0 0 1 2.386-.983zm0 5.618a2.278 2.278 0 1 0-1.579-.667 2.157 2.157 0 0 0 1.579.667zm0-8.989a6.5 6.5 0 0 1 3.369.913 6.868 6.868 0 0 1 2.456 2.458 6.512 6.512 0 0 1 .912 3.371 6.4 6.4 0 0 1-.28 1.984 9.935 9.935 0 0 1-1.088 2.124q-.562.878-2.316 3.406l-2.351 3.371a.877.877 0 0 1-1.4 0l-2.351-3.371q-1.754-2.528-2.316-3.406A9.877 9.877 0 0 1 .285 8.726 6.4 6.4 0 0 1 0 6.742a6.512 6.512 0 0 1 .912-3.371A6.871 6.871 0 0 1 3.369.913 6.5 6.5 0 0 1 6.737 0zm0 16.643l2.176-3.125q1.683-2.423 2.21-3.2a10.258 10.258 0 0 0 .983-1.914 5.183 5.183 0 0 0 .245-1.668 5.614 5.614 0 1 0-11.228 0 5.183 5.183 0 0 0 .245 1.668 10.321 10.321 0 0 0 .983 1.914q.527.773 2.211 3.2 1.338 1.896 2.175 3.125z" fill-rule="evenodd"/></symbol><symbol viewBox="0 0 19 19.031" id="phone" xmlns="http://www.w3.org/2000/svg"><path data-name="" d="M.89.894a1.029 1.029 0 0 0-.63.409 1.153 1.153 0 0 0-.26.706 16.969 16.969 0 0 0 17 17.027 1.155 1.155 0 0 0 .71-.26 1.068 1.068 0 0 0 .41-.632l.85-3.755a1.106 1.106 0 0 0-.07-.781 1.24 1.24 0 0 0-.6-.557l-4.01-1.71a1.167 1.167 0 0 0-.74-.056 1.19 1.19 0 0 0-.63.39l-1.63 2.008a13.179 13.179 0 0 1-5.94-5.949l2-1.636a1.195 1.195 0 0 0 .33-1.376L5.98.707a1.21 1.21 0 0 0-.56-.595 1.064 1.064 0 0 0-.78-.074zm16.07 16.953a15.424 15.424 0 0 1-7.94-2.157 15.6 15.6 0 0 1-5.68-5.688 15.405 15.405 0 0 1-2.15-7.956l3.71-.855 1.71 4.015L3.9 7.399a14.077 14.077 0 0 0 7.72 7.733l2.19-2.714 4.01 1.71z" fill-rule="evenodd"/></symbol></svg>