<svg xmlns="http://www.w3.org/2000/svg" width="8" height="14" viewBox="0 0 8 14">
  <metadata><?xpacket begin="﻿" id="W5M0MpCehiHzreSzNTczkc9d"?>
<x:xmpmeta xmlns:x="adobe:ns:meta/" x:xmptk="Adobe XMP Core 5.6-c138 79.159824, 2016/09/14-01:09:01        ">
   <rdf:RDF xmlns:rdf="http://www.w3.org/1999/02/22-rdf-syntax-ns#">
      <rdf:Description rdf:about=""/>
   </rdf:RDF>
</x:xmpmeta>
                                                                                                    
                                                                                                    
                                                                                                    
                                                                                                    
                                                                                                    
                                                                                                    
                                                                                                    
                                                                                                    
                                                                                                    
                                                                                                    
                                                                                                    
                                                                                                    
                                                                                                    
                                                                                                    
                                                                                                    
                                                                                                    
                                                                                                    
                                                                                                    
                                                                                                    
                                                                                                    
                           
<?xpacket end="w"?></metadata>
<defs>
    <style>
      .cls-1 {
        fill: #303030;
        fill-rule: evenodd;
      }
    </style>
  </defs>
  <path id="_копия_3" data-name=" копия 3" class="cls-1" d="M1445.16,5486.58v-0.06a0.8,0.8,0,0,0-.16.49,0.76,0.76,0,0,0,.16.49l6.34,6.35a0.573,0.573,0,0,0,.43.16,0.751,0.751,0,0,0,.48-0.16l0.38-.44a0.6,0.6,0,0,0,.16-0.44,0.8,0.8,0,0,0-.16-0.49l-5.48-5.47,5.48-5.46a0.7,0.7,0,0,0,.21-0.5,0.517,0.517,0,0,0-.21-0.43l-0.38-.39a0.672,0.672,0,0,0-.48-0.22,0.526,0.526,0,0,0-.43.22Z" transform="translate(-1445 -5480)"/>
</svg>
