<svg xmlns="http://www.w3.org/2000/svg" width="14" height="8" viewBox="0 0 14 8">
  <metadata><?xpacket begin="﻿" id="W5M0MpCehiHzreSzNTczkc9d"?>
<x:xmpmeta xmlns:x="adobe:ns:meta/" x:xmptk="Adobe XMP Core 5.6-c138 79.159824, 2016/09/14-01:09:01        ">
   <rdf:RDF xmlns:rdf="http://www.w3.org/1999/02/22-rdf-syntax-ns#">
      <rdf:Description rdf:about=""/>
   </rdf:RDF>
</x:xmpmeta>
                                                                                                    
                                                                                                    
                                                                                                    
                                                                                                    
                                                                                                    
                                                                                                    
                                                                                                    
                                                                                                    
                                                                                                    
                                                                                                    
                                                                                                    
                                                                                                    
                                                                                                    
                                                                                                    
                                                                                                    
                                                                                                    
                                                                                                    
                                                                                                    
                                                                                                    
                                                                                                    
                           
<?xpacket end="w"?></metadata>
<defs>
    <style>
      .cls-1 {
        fill: #303030;
        fill-rule: evenodd;
      }
    </style>
  </defs>
  <path id="_копия_2" data-name=" копия 2" class="cls-1" d="M884.437,7489.84h0.055a0.835,0.835,0,0,1-.983,0l-6.337-6.34a0.58,0.58,0,0,1-.164-0.43,0.81,0.81,0,0,1,.164-0.49l0.437-.37a0.585,0.585,0,0,1,.437-0.16,0.788,0.788,0,0,1,.491.16l5.463,5.48,5.464-5.48a0.7,0.7,0,0,1,.491-0.22,0.535,0.535,0,0,1,.437.22l0.382,0.37a0.686,0.686,0,0,1,.219.49,0.51,0.51,0,0,1-.219.43Z" transform="translate(-877 -7482)"/>
</svg>
