<svg xmlns="http://www.w3.org/2000/svg" width="13.469" height="17.969" viewBox="0 0 13.469 17.969">
  <metadata><?xpacket begin="﻿" id="W5M0MpCehiHzreSzNTczkc9d"?>
<x:xmpmeta xmlns:x="adobe:ns:meta/" x:xmptk="Adobe XMP Core 5.6-c138 79.159824, 2016/09/14-01:09:01        ">
   <rdf:RDF xmlns:rdf="http://www.w3.org/1999/02/22-rdf-syntax-ns#">
      <rdf:Description rdf:about=""/>
   </rdf:RDF>
</x:xmpmeta>
                                                                                                    
                                                                                                    
                                                                                                    
                                                                                                    
                                                                                                    
                                                                                                    
                                                                                                    
                                                                                                    
                                                                                                    
                                                                                                    
                                                                                                    
                                                                                                    
                                                                                                    
                                                                                                    
                                                                                                    
                                                                                                    
                                                                                                    
                                                                                                    
                                                                                                    
                                                                                                    
                           
<?xpacket end="w"?></metadata>
<defs>
    <style>
      .cls-1 {
        fill: #fcbf12;
        fill-rule: evenodd;
      }
    </style>
  </defs>
  <path id="_" data-name="" class="cls-1" d="M689.737,83.371a3.355,3.355,0,1,1-2.386.983A3.247,3.247,0,0,1,689.737,83.371Zm0,5.618a2.278,2.278,0,1,0-1.579-.667A2.157,2.157,0,0,0,689.737,88.989Zm0-8.989a6.5,6.5,0,0,1,3.369.913,6.868,6.868,0,0,1,2.456,2.458,6.512,6.512,0,0,1,.912,3.371,6.4,6.4,0,0,1-.28,1.984,9.935,9.935,0,0,1-1.088,2.124q-0.562.878-2.316,3.406l-2.351,3.371a0.877,0.877,0,0,1-1.4,0l-2.351-3.371q-1.754-2.528-2.316-3.406a9.877,9.877,0,0,1-1.087-2.124A6.4,6.4,0,0,1,683,86.742a6.512,6.512,0,0,1,.912-3.371,6.871,6.871,0,0,1,2.457-2.458A6.5,6.5,0,0,1,689.737,80Zm0,16.643,2.176-3.125q1.683-2.423,2.21-3.2a10.258,10.258,0,0,0,.983-1.914,5.183,5.183,0,0,0,.245-1.668,5.614,5.614,0,1,0-11.228,0,5.183,5.183,0,0,0,.245,1.668,10.321,10.321,0,0,0,.983,1.914q0.527,0.773,2.211,3.2Q688.9,95.414,689.737,96.643Z" transform="translate(-683 -80)"/>
</svg>
