<svg xmlns="http://www.w3.org/2000/svg" width="18" height="18" viewBox="0 0 18 18">
  <metadata><?xpacket begin="﻿" id="W5M0MpCehiHzreSzNTczkc9d"?>
<x:xmpmeta xmlns:x="adobe:ns:meta/" x:xmptk="Adobe XMP Core 5.6-c138 79.159824, 2016/09/14-01:09:01        ">
   <rdf:RDF xmlns:rdf="http://www.w3.org/1999/02/22-rdf-syntax-ns#">
      <rdf:Description rdf:about=""/>
   </rdf:RDF>
</x:xmpmeta>
                                                                                                    
                                                                                                    
                                                                                                    
                                                                                                    
                                                                                                    
                                                                                                    
                                                                                                    
                                                                                                    
                                                                                                    
                                                                                                    
                                                                                                    
                                                                                                    
                                                                                                    
                                                                                                    
                                                                                                    
                                                                                                    
                                                                                                    
                                                                                                    
                                                                                                    
                                                                                                    
                           
<?xpacket end="w"?></metadata>
<defs>
    <style>
      .cls-1 {
        fill: #303030;
        fill-rule: evenodd;
      }
    </style>
  </defs>
  <path id="_" data-name="" class="cls-1" d="M627.929,5705.36a0.373,0.373,0,0,1,.105.28,0.5,0.5,0,0,1-.105.31l-0.352.32a0.45,0.45,0,0,1-.316.14,0.343,0.343,0,0,1-.281-0.14l-4.536-4.54a0.329,0.329,0,0,1-.14-0.28v-0.35a7.214,7.214,0,0,1-2.268,1.43,7.41,7.41,0,0,1-2.689.5,7.063,7.063,0,0,1-3.674-.98,7.431,7.431,0,0,1-2.654-2.65,7.348,7.348,0,0,1,0-7.35,7.459,7.459,0,0,1,2.654-2.66,7.377,7.377,0,0,1,7.348,0,7.459,7.459,0,0,1,2.654,2.66,7.1,7.1,0,0,1,.984,3.67,7.3,7.3,0,0,1-1.933,4.96h0.351a0.454,0.454,0,0,1,.317.14Zm-10.582-3.45a6.171,6.171,0,1,0-3.112-.83A6.1,6.1,0,0,0,617.347,5701.91Z" transform="translate(-610.031 -5688.41)"/>
</svg>
