<svg xmlns="http://www.w3.org/2000/svg" width="13.97" height="16" viewBox="0 0 13.97 16">
  <metadata><?xpacket begin="﻿" id="W5M0MpCehiHzreSzNTczkc9d"?>
<x:xmpmeta xmlns:x="adobe:ns:meta/" x:xmptk="Adobe XMP Core 5.6-c138 79.159824, 2016/09/14-01:09:01        ">
   <rdf:RDF xmlns:rdf="http://www.w3.org/1999/02/22-rdf-syntax-ns#">
      <rdf:Description rdf:about=""/>
   </rdf:RDF>
</x:xmpmeta>
                                                                                                    
                                                                                                    
                                                                                                    
                                                                                                    
                                                                                                    
                                                                                                    
                                                                                                    
                                                                                                    
                                                                                                    
                                                                                                    
                                                                                                    
                                                                                                    
                                                                                                    
                                                                                                    
                                                                                                    
                                                                                                    
                                                                                                    
                                                                                                    
                                                                                                    
                                                                                                    
                           
<?xpacket end="w"?></metadata>
<defs>
    <style>
      .cls-1 {
        fill: #303030;
        fill-rule: evenodd;
      }
    </style>
  </defs>
  <path id="Иконка" class="cls-1" d="M1246.76,3035.95a4.117,4.117,0,0,1,2.09.56,4.159,4.159,0,0,1,1.53,1.53,4.081,4.081,0,0,1,.56,2.1v1.31a1.433,1.433,0,0,1-.43,1.06,1.48,1.48,0,0,1-1.07.44h-10.98a1.442,1.442,0,0,1-1.06-.44,1.4,1.4,0,0,1-.44-1.06v-1.31a4.18,4.18,0,0,1,.56-2.1,4.313,4.313,0,0,1,1.53-1.53,4.144,4.144,0,0,1,2.09-.56,3.381,3.381,0,0,1,1.06.22c0.29,0.08.53,0.14,0.72,0.19a5.486,5.486,0,0,0,1.03.09,5.411,5.411,0,0,0,1.03-.09c0.19-.05.43-0.11,0.72-0.19A3.435,3.435,0,0,1,1246.76,3035.95Zm3.18,5.5v-1.31a3.192,3.192,0,0,0-3.18-3.19,2.863,2.863,0,0,0-.78.16,6.23,6.23,0,0,1-4.06,0,2.863,2.863,0,0,0-.78-0.16,3.192,3.192,0,0,0-3.18,3.19v1.31a0.454,0.454,0,0,0,.14.36,0.49,0.49,0,0,0,.36.14h10.98a0.49,0.49,0,0,0,.36-0.14A0.454,0.454,0,0,0,1249.94,3041.45Zm-5.99-6.5a3.972,3.972,0,0,1-2.01-.53,3.881,3.881,0,0,1-1.45-1.45,3.935,3.935,0,0,1-.53-2.02,3.991,3.991,0,0,1,1.98-3.47,3.994,3.994,0,0,1,6.01,3.47,4.036,4.036,0,0,1-.53,2.02A3.991,3.991,0,0,1,1243.95,3034.95Zm0-7a2.861,2.861,0,0,0-2.12.88,2.9,2.9,0,0,0-.88,2.12,2.938,2.938,0,0,0,.88,2.13,3,3,0,0,0,5.12-2.13A3,3,0,0,0,1243.95,3027.95Z" transform="translate(-1236.97 -3026.94)"/>
</svg>
