<svg xmlns="http://www.w3.org/2000/svg" width="19.999" height="20.032" viewBox="0 0 19 19.031">
  <metadata><?xpacket begin="﻿" id="W5M0MpCehiHzreSzNTczkc9d"?>
<x:xmpmeta xmlns:x="adobe:ns:meta/" x:xmptk="Adobe XMP Core 5.6-c138 79.159824, 2016/09/14-01:09:01        ">
   <rdf:RDF xmlns:rdf="http://www.w3.org/1999/02/22-rdf-syntax-ns#">
      <rdf:Description rdf:about=""/>
   </rdf:RDF>
</x:xmpmeta>
                                                                                                    
                                                                                                    
                                                                                                    
                                                                                                    
                                                                                                    
                                                                                                    
                                                                                                    
                                                                                                    
                                                                                                    
                                                                                                    
                                                                                                    
                                                                                                    
                                                                                                    
                                                                                                    
                                                                                                    
                                                                                                    
                                                                                                    
                                                                                                    
                                                                                                    
                                                                                                    
                           
<?xpacket end="w"?></metadata>
<defs>
    <style>
      .cls-1 {
        fill: #fcbf12;
        fill-rule: evenodd;
      }
    </style>
  </defs>
  <path id="_" data-name="" class="cls-1" d="M1268.89,90.863a1.029,1.029,0,0,0-.63.409,1.153,1.153,0,0,0-.26.706,16.969,16.969,0,0,0,17,17.027,1.155,1.155,0,0,0,.71-0.26,1.068,1.068,0,0,0,.41-0.632l0.85-3.755a1.106,1.106,0,0,0-.07-0.781,1.24,1.24,0,0,0-.6-0.557l-4.01-1.71a1.167,1.167,0,0,0-.74-0.056,1.19,1.19,0,0,0-.63.39l-1.63,2.008a13.179,13.179,0,0,1-5.94-5.949l2-1.636a1.195,1.195,0,0,0,.33-1.376l-1.7-4.015a1.21,1.21,0,0,0-.56-0.595,1.064,1.064,0,0,0-.78-0.074Zm16.07,16.953a15.424,15.424,0,0,1-7.94-2.157,15.6,15.6,0,0,1-5.68-5.688,15.405,15.405,0,0,1-2.15-7.956l3.71-.855,1.71,4.015-2.71,2.193a14.077,14.077,0,0,0,7.72,7.733l2.19-2.714,4.01,1.71Z" transform="translate(-1268 -89.969)"/>
</svg>
