<svg xmlns="http://www.w3.org/2000/svg" width="14" height="16" viewBox="0 0 14 16">
  <metadata><?xpacket begin="﻿" id="W5M0MpCehiHzreSzNTczkc9d"?>
<x:xmpmeta xmlns:x="adobe:ns:meta/" x:xmptk="Adobe XMP Core 5.6-c138 79.159824, 2016/09/14-01:09:01        ">
   <rdf:RDF xmlns:rdf="http://www.w3.org/1999/02/22-rdf-syntax-ns#">
      <rdf:Description rdf:about=""/>
   </rdf:RDF>
</x:xmpmeta>
                                                                                                    
                                                                                                    
                                                                                                    
                                                                                                    
                                                                                                    
                                                                                                    
                                                                                                    
                                                                                                    
                                                                                                    
                                                                                                    
                                                                                                    
                                                                                                    
                                                                                                    
                                                                                                    
                                                                                                    
                                                                                                    
                                                                                                    
                                                                                                    
                                                                                                    
                                                                                                    
                           
<?xpacket end="w"?></metadata>
<defs>
    <style>
      .cls-1 {
        fill: #303030;
        fill-rule: evenodd;
      }
    </style>
  </defs>
  <path id="Иконка" class="cls-1" d="M1242.65,2947.82l1.03,2.53a1.08,1.08,0,0,1,.01.71,0.862,0.862,0,0,1-.45.54l-2.03,1.28a0.9,0.9,0,0,1-.65.14,1.214,1.214,0,0,1-.63-0.29,10.794,10.794,0,0,1-2.84-4.94,10.683,10.683,0,0,1,0-5.5,10.845,10.845,0,0,1,2.84-4.94,1.214,1.214,0,0,1,.63-0.29,0.947,0.947,0,0,1,.65.14l2.03,1.28a0.88,0.88,0,0,1,.45.55,1.05,1.05,0,0,1-.01.7l-1.03,2.53a1.134,1.134,0,0,1-.42.5,1.041,1.041,0,0,1-.64.16l-1.35-.16a7.87,7.87,0,0,0,0,4.56l1.35-.15a0.971,0.971,0,0,1,.64.15A1.134,1.134,0,0,1,1242.65,2947.82Zm0.06,2.94a0.027,0.027,0,0,0,.03-0.03l-1.03-2.53a0.027,0.027,0,0,0-.03-0.03l-2.12.21a9.721,9.721,0,0,1-.66-3.32,10.068,10.068,0,0,1,.66-3.36l2.12,0.22c0.02,0,.03-0.01.03-0.04l1.03-2.53a0.027,0.027,0,0,0-.03-0.03l-2.03-1.28h-0.03a9.822,9.822,0,0,0-2.59,4.5,9.635,9.635,0,0,0,0,5,9.822,9.822,0,0,0,2.59,4.5h0.03Zm3.15-10.81a0.394,0.394,0,0,1,.6.06,2.155,2.155,0,0,1,.28,1.03,2.125,2.125,0,0,1-.28,1.03,0.345,0.345,0,0,1-.29.17,0.365,0.365,0,0,1-.31-0.11l-0.18-.18a0.237,0.237,0,0,1-.11-0.19,0.442,0.442,0,0,1,.04-0.25,0.93,0.93,0,0,0,0-.94,0.429,0.429,0,0,1-.04-0.25,0.252,0.252,0,0,1,.11-0.19Zm2.91-2.81a0.427,0.427,0,0,1,.29-0.1,0.3,0.3,0,0,1,.27.13,5.965,5.965,0,0,1,1.25,2.5,6.377,6.377,0,0,1,0,2.75,6.023,6.023,0,0,1-1.25,2.5,0.316,0.316,0,0,1-.27.12,0.476,0.476,0,0,1-.29-0.09l-0.16-.19a0.313,0.313,0,0,1-.13-0.25,0.355,0.355,0,0,1,.1-0.25,5.083,5.083,0,0,0,0-6.44,0.338,0.338,0,0,1-.1-0.25,0.328,0.328,0,0,1,.13-0.25Zm-1.44,1.4a0.365,0.365,0,0,1,.3-0.11,0.356,0.356,0,0,1,.26.14,4.051,4.051,0,0,1,0,4.94,0.356,0.356,0,0,1-.26.14,0.365,0.365,0,0,1-.3-0.11l-0.19-.19a0.384,0.384,0,0,1-.11-0.23,0.307,0.307,0,0,1,.08-0.24,3,3,0,0,0,0-3.68,0.3,0.3,0,0,1-.08-0.24,0.384,0.384,0,0,1,.11-0.23Z" transform="translate(-1236.75 -2937.03)"/>
</svg>
