<svg xmlns="http://www.w3.org/2000/svg" width="13.47" height="14.22" viewBox="0 0 13.47 14.22">
  <metadata><?xpacket begin="﻿" id="W5M0MpCehiHzreSzNTczkc9d"?>
<x:xmpmeta xmlns:x="adobe:ns:meta/" x:xmptk="Adobe XMP Core 5.6-c138 79.159824, 2016/09/14-01:09:01        ">
   <rdf:RDF xmlns:rdf="http://www.w3.org/1999/02/22-rdf-syntax-ns#">
      <rdf:Description rdf:about=""/>
   </rdf:RDF>
</x:xmpmeta>
                                                                                                    
                                                                                                    
                                                                                                    
                                                                                                    
                                                                                                    
                                                                                                    
                                                                                                    
                                                                                                    
                                                                                                    
                                                                                                    
                                                                                                    
                                                                                                    
                                                                                                    
                                                                                                    
                                                                                                    
                                                                                                    
                                                                                                    
                                                                                                    
                                                                                                    
                                                                                                    
                           
<?xpacket end="w"?></metadata>
<defs>
    <style>
      .cls-1 {
        fill: #303030;
        fill-rule: evenodd;
      }
    </style>
  </defs>
  <path id="Иконка" class="cls-1" d="M1355.61,2868.83a4.594,4.594,0,0,1,1.31,2.47,13.505,13.505,0,0,1,.08,4.36,4.543,4.543,0,0,1-1.53,3.08,4.7,4.7,0,0,1-1.8.84l-0.17.03a8.134,8.134,0,0,1-1.33.25,13.877,13.877,0,0,1-2.88.08c-0.39.42-.67,0.73-0.84,0.92l-0.22.25a4.345,4.345,0,0,1-.44.44,0.592,0.592,0,0,1-.53.08,0.324,0.324,0,0,1-.23-0.21,1.124,1.124,0,0,1-.1-0.31v-1.62a4,4,0,0,1-2.36-1.61,5.715,5.715,0,0,1-.81-2.39,11.3,11.3,0,0,1-.08-2.22,9.776,9.776,0,0,1,.33-2.5,4.353,4.353,0,0,1,1.06-1.86,4.722,4.722,0,0,1,1.66-.94,9.13,9.13,0,0,1,1.83-.42,10.42,10.42,0,0,1,1.48-.11h0.61a10.724,10.724,0,0,1,3.55.58A4.6,4.6,0,0,1,1355.61,2868.83Zm0.39,6.58a11.117,11.117,0,0,0-.05-3.72,3.746,3.746,0,0,0-1.09-2.14,3.421,3.421,0,0,0-1.22-.64,10.177,10.177,0,0,0-3.05-.47h-0.53a10.358,10.358,0,0,0-1.25.08,9.129,9.129,0,0,0-1.55.34,3.972,3.972,0,0,0-1.39.8,3.627,3.627,0,0,0-.91,1.56,8.111,8.111,0,0,0-.28,2.08v0.17a12.48,12.48,0,0,0,.06,1.86,4.829,4.829,0,0,0,.66,1.94,3.421,3.421,0,0,0,1.92,1.31h0l-0.03,2.39a0.215,0.215,0,0,0,.1.23,0.213,0.213,0,0,0,.23-0.09c0.19-.19.56-0.61,1.11-1.25l0.78-.95a12.058,12.058,0,0,0,2.47-.08,10.17,10.17,0,0,0,1.16-.22l0.17-.03A3.341,3.341,0,0,0,1356,2875.41Zm-3.86-2.25a1.182,1.182,0,0,0-1.24-1.28,0.159,0.159,0,0,0-.18.18,0.14,0.14,0,0,0,.15.18,0.893,0.893,0,0,1,.91.95,0.156,0.156,0,0,0,.18.17A0.17,0.17,0,0,0,1352.14,2873.16Zm0.56,0.31a0.162,0.162,0,0,0,.18.19,0.152,0.152,0,0,0,.18-0.17,2.449,2.449,0,0,0-.62-1.77,2.626,2.626,0,0,0-1.82-.81,0.168,0.168,0,0,0-.18.18,0.14,0.14,0,0,0,.15.18,2.31,2.31,0,0,1,1.58.7A2.022,2.022,0,0,1,1352.7,2873.47Zm1.3,0.39a3.8,3.8,0,0,0-1.08-2.84,3.542,3.542,0,0,0-2.61-1.03,0.169,0.169,0,0,0-.19.19,0.162,0.162,0,0,0,.19.18,3.2,3.2,0,0,1,2.33.88,3.474,3.474,0,0,1,1,2.62A0.181,0.181,0,0,0,1354,2873.86Zm-0.3,2.72a0.519,0.519,0,0,0-.11-0.67,6.359,6.359,0,0,0-1.28-.89,0.492,0.492,0,0,0-.4-0.09,0.451,0.451,0,0,0-.32.18l-0.28.33a0.387,0.387,0,0,1-.25.14l-0.14.03a2.986,2.986,0,0,1-1.13-.59,2.881,2.881,0,0,1-.73-0.78,4.524,4.524,0,0,1-.36-0.69l-0.11-.31v-0.13a0.363,0.363,0,0,1,.14-0.25l0.33-.25a0.472,0.472,0,0,0,.18-0.32,0.653,0.653,0,0,0-.06-0.43c-0.15-.26-0.29-0.49-0.42-0.67l-0.5-.61a0.508,0.508,0,0,0-.67-0.11h0a2.93,2.93,0,0,0-.75.61,0.985,0.985,0,0,0-.19.83l0.17,0.36a8.07,8.07,0,0,0,.58,1.21,11.946,11.946,0,0,0,.83,1.26,6.479,6.479,0,0,0,1.17,1.17,10.984,10.984,0,0,0,1.55,1,7.048,7.048,0,0,0,1.31.58h0a0.852,0.852,0,0,0,.83-0.19A2.627,2.627,0,0,0,1353.7,2876.58Z" transform="translate(-1343.69 -2867.44)"/>
</svg>
